# xmcd
#
# Track frame offsets: 
#        150
#        20067
#        39642
#        59565
#
# Disc length: 1052 seconds
#
# Revision: 8
# Processed by: cddbd v1.5.2PL0 Copyright (c) Steve Scherf et al.
# Submitted via: ExactAudioCopyFreeDBPlugin 1.0
#
DISCID=34041a04
DTITLE=pleur -  La premieré porte 
DYEAR=1999
DGENRE=VisKei
TTITLE0=星の帰り道
TTITLE1=5月の華
TTITLE2=星の帰り道 [Instrumental]
TTITLE3=5月の華 [Instrumental]
EXTD=YEAR: 2009
EXTT0=
EXTT1=
EXTT2=
EXTT3=
PLAYORDER=
